<svg width="800" height="800" viewBox="0 0 800 800" fill="none" xmlns="http://www.w3.org/2000/svg">
<path d="M340.5 637.5C340.637 637.964 340.806 638.488 341.006 639.059C345.42 651.697 359.111 656 372.497 656C382.71 656 393.045 654.176 401.687 648.734C407.489 645.08 412.118 641.134 416.34 636.184C424.917 626.124 428.005 612.623 427.982 599.404C427.95 580.8 426.258 565.853 422 543.5C417.138 501.87 413.882 477.786 407.5 434" stroke="#7E49E1" stroke-width="23"/>
<path d="M402 414L380.5 267.5L370.5 217C369.809 205.252 369.399 197.292 369.768 187.561C370.058 179.88 371.857 172.347 374.533 165.142L377 158.5C379.761 153.038 382.291 148.344 384.758 144.227C397.467 123.015 426.753 120.982 439.188 142.356C439.671 143.187 440.158 144.038 440.651 144.909C444.962 152.532 448.018 160.859 449.044 169.556C449.419 172.74 449.673 175.771 449.825 178.77C450.768 197.401 442.292 215.06 429.911 229.013L386 278.5C352.281 310.62 332.304 331.14 303.779 363.924C296.304 372.514 290.724 382.593 287.279 393.446L282.5 408.5C279.949 421.109 279.808 428.967 281.375 439.722C282.035 444.246 283.246 448.691 284.876 452.961C298.76 489.327 314.661 506.547 348.646 523.943C355.445 527.424 362.808 529.751 370.383 530.731C382.773 532.336 392.692 532.504 404.787 531.084C413.91 530.013 422.687 526.86 430.519 522.06C454.75 507.208 467.886 492.914 479.871 468.216C484.208 459.277 486.352 449.423 486.456 439.488C486.473 437.9 486.477 436.333 486.467 434.751C486.402 424.334 484.014 414.021 479.363 404.7C470.434 386.804 461.241 374.615 445.836 365.359C439.213 361.38 431.639 359.261 423.946 358.545C409.267 357.179 398.436 358.529 382 364.5C364.572 373.769 355.285 384.785 347.598 403.149C344.633 410.233 343.5 417.92 343.5 425.6C343.5 436.704 345.733 447.925 351.912 457.151C356.057 463.338 360.309 467.903 366.5 473" stroke="#7E49E1" stroke-width="23" stroke-linecap="round"/>
<path d="M320.5 620L349.5 650.5" stroke="#7E49E1" stroke-width="23"/>
<ellipse cx="404.5" cy="431" rx="23.5" ry="23" fill="#7E49E1"/>
<ellipse cx="341.5" cy="609" rx="34.5" ry="36" fill="#7E49E1"/>
</svg>
